<?xml version="1.0" encoding="UTF-8"?>
<svg id="Layer_1" data-name="Layer 1" xmlns="http://www.w3.org/2000/svg" viewBox="0 0 724.98 716.06">
  <defs>
    <style>
      .cls-1 {
        fill: #5a1015;
        stroke-width: 0px;
      }
    </style>
  </defs>
  <path class="cls-1" d="M0,361.35c.07-11.42.62-27.52,2.43-43.59,1.87-16.55,4.73-32.9,8.96-49,8.38-31.89,21.08-61.97,37.78-90.41,19.64-33.46,44.08-62.92,73.23-88.51,27.6-24.23,58.14-43.84,91.74-58.77,26.75-11.88,54.49-20.49,83.29-25.59,12.94-2.29,25.98-3.83,39.13-4.65,13.49-.84,26.98-1.07,40.46-.58,38.72,1.42,76.25,8.84,112.59,22.47,24.27,9.1,47.38,20.42,69.17,34.39,20.66,13.25,39.82,28.39,57.44,45.53,27.7,26.95,50.3,57.66,68.39,91.7,12.78,24.04,22.16,49.44,29.15,75.73,5.19,19.51,8.11,39.41,9.9,59.45,1.68,18.75,1.79,37.57.15,56.35-4.21,48.13-17.28,93.73-39.78,136.52-20.75,39.46-47.99,73.85-81.52,103.31-23.28,20.45-48.79,37.64-76.38,51.57-23.81,12.03-48.71,21.36-74.71,27.78-17.5,4.32-35.17,7.33-53.05,9.3-4.3.47-8.63.74-12.95,1-15.14.9-30.32.97-45.44.03-46.52-2.9-90.97-13.98-133.12-34.09-37.17-17.73-70.46-40.98-99.84-69.76-18.98-18.59-35.56-39.16-50.03-61.46-14.56-22.43-26.49-46.14-35.65-71.25-8.81-24.15-15-48.96-18.38-74.43-1.68-12.7-2.31-25.51-2.96-43.04ZM720.54,358.89c-1.03-9.71-.66-19.54-1.53-29.34-1.53-17.26-4.05-34.36-7.96-51.21-8.6-37.09-23.2-71.76-43.26-104.14-24.32-39.25-54.87-72.76-92.18-100.03-30.87-22.56-64.44-39.89-100.81-51.9-32-10.56-64.81-16.42-98.4-17.81-21.99-.91-43.92.54-65.75,3.6-28.34,3.97-55.79,11.16-82.26,21.96-30.84,12.58-59.6,28.8-85.94,49.31-25.67,19.98-48.3,42.88-67.74,68.9-20.95,28.05-37.51,58.53-49.47,91.45-11.5,31.64-18.2,64.3-20.09,97.87-1.52,26.99.14,53.84,4.64,80.54,4.56,27.05,12.48,53.09,23.38,78.19,18.1,41.71,43.54,78.5,75.75,110.58,13.47,13.42,27.95,25.68,43.35,36.86,25.62,18.6,53.32,33.41,82.84,44.7,18.82,7.2,38.16,12.8,58,16.61,18.02,3.46,36.2,5.55,54.51,6.17,12.98.44,25.97.36,38.96-.56,15.3-1.09,30.5-2.88,45.53-5.89,23.56-4.72,46.46-11.57,68.62-21.03,15.19-6.49,30.01-13.64,44.2-22.04,32.64-19.31,61.56-43.14,86.73-71.56,18.31-20.67,34.06-43.09,47.07-67.4,14.28-26.68,25.01-54.74,32.06-84.18,3.22-13.43,5.43-27.03,7.15-40.74,1.62-12.91,1.8-25.88,2.6-38.91Z"/>
  <path class="cls-1" d="M95.48,356.7c.23-51.41,14.03-98.85,42.49-141.75,17.92-27.01,40.12-50.06,66.53-69.05,27.64-19.88,57.9-33.99,90.89-42.29,14.07-3.54,28.34-5.73,42.83-6.91,13.66-1.11,27.32-1.3,40.94-.57,26.4,1.41,52.1,6.48,76.97,15.7,14.55,5.4,28.69,11.63,42.09,19.44,15.58,9.08,30.16,19.57,43.64,31.55,25.55,22.71,46.31,49.15,61.62,79.72,11.69,23.36,19.4,48.02,23.59,73.83,3.03,18.67,3.68,37.43,2.7,56.22-2.06,39.52-12.97,76.51-32.63,110.94-15.86,27.76-35.93,51.97-60.58,72.34-27.55,22.76-58.39,39.42-92.71,49.58-17.6,5.21-35.45,8.99-53.79,10.41-9.13.71-18.26,1.65-27.42,1.59-32.39-.19-63.92-5.14-94.45-16.37-32.61-11.99-61.94-29.34-87.66-52.6-22.3-20.17-40.37-43.77-54.76-70.14-13.17-24.15-22.08-49.86-26.73-76.93-2.53-14.75-3.93-29.68-3.54-44.73ZM627.04,365.38c-.15-32.58-2-47.18-7.36-68.51-8.45-33.63-22.4-64.77-43.4-92.42-26.42-34.78-59.32-61.81-98.97-80.54-33.92-16.03-69.66-24.25-107.04-25.53-15.66-.54-31.26.58-46.8,2.68-19.06,2.59-37.57,7.36-55.48,14.2-24.86,9.5-47.94,22.26-69.05,38.6-23.55,18.22-43.5,39.67-59.58,64.71-15.6,24.31-26.35,50.64-33.34,78.64-4.53,18.15-7.57,36.45-7.95,55.16-.28,13.34.9,26.58,2.79,39.77,3.63,25.34,10.6,49.74,21.67,72.84,24.74,51.63,62.37,91.14,112.84,118.24,34.22,18.38,70.88,28.72,109.66,30.96,26.04,1.5,51.94-.37,77.43-6.16,40.59-9.22,77.28-26.62,109.66-52.87,24.85-20.14,45.34-44.04,61.26-71.77,22.62-39.4,33.67-81.89,33.67-118Z"/>
  <path class="cls-1" d="M362.11,45.1c-1.17,8.3-2.19,16.52-2.06,24.8.37,1.87,2.75,1.74,3.65,3.5h-11.82c1.56-1.93,3.71-1.99,4.57-3.69,1.2-10.14,2.62-20.31,1.99-30.56-.79-2.01-3.4-1.52-4.66-3.58,4.03-.59,7.58-.31,11.37-.04,5.57,8.61,8.42,18.66,14.02,27.72,5.46-8.65,8.85-17.9,13.91-26.39,3.71-.23,7.29.1,11.04.42-.75,1.74-2.77,1.57-3.94,4.09-.58,9.3-.08,19.72-.03,30.12.6,1.78,2.56,2.18,3.47,3.58-2.71.69-11.12.21-15.14-.89.6-1.93,3.5-.53,3.84-2.69.91-8.77.22-17.67.48-27.68-6.59,10.2-10.6,20.56-16.5,31.18-4.73-10.85-9.11-20.48-14.21-29.88Z"/>
  <path class="cls-1" d="M191.98,102.73c7.9,1.84,14.37,7.27,22.91,5.48-2.71,4.04-7.03,6.07-11,5.39-3.8-.64-7.38-1.95-10.87-3.56-1.96-.9-3.92-1.79-5.75-2.63-1.83.42-3.39.9-4.49,2.7,2.26,3.54,4.4,7.26,7.45,10.34,1.18,1.2,2.94.09,4.45,1.25-3.46,3.2-7.44,5.44-11.41,8.01.83-4.91.89-5.21-1.98-9.33-4.08-5.87-7.46-12.21-12.02-17.75-2.7-3.29-2.85-3.37-7.04-3.34-.37-.48-.25-.95.19-1.24,5.01-3.27,10-6.58,15.09-9.74,1.68-1.04,3.57-1.77,5.44-2.44,4-1.43,7.67-.68,10.44,2.54,2.68,3.11,2.2,6.81.91,10.38-.44,1.22-1.33,2.28-2.32,3.92ZM180.99,107.1c2.13-.72,3.76-1.84,5.27-3.09,3.43-2.81,4.13-6.09,2.2-9.66-1.94-3.6-5.85-5.31-9.68-3.93-2.27.82-4.52,1.93-6,4.35,2.57,4.27,4.92,8.59,8.22,12.33Z"/>
  <path class="cls-1" d="M270.87,50.75c-1.67-1.18-3.58.02-4.55-1.5.25-1.38,1.41-1.18,2.31-1.38,7.62-1.62,15.11-4.01,23-4.05,2.49-.01,4.97-.04,7.39.77,11.01,3.66,15.74,16.59,9.61,26.48-2.34,3.78-5.54,6.71-9.73,8.21-7.79,2.8-15.99,3.96-24.33,5.36.99-.94,1.99-1.87,3.4-3.2-1.57-10.23-4.04-20.46-7.1-30.69ZM278.61,48.92c2.29,10.43,3.74,20.88,7.6,30.52,7.77.27,14.03-3.08,16.33-8.35,2.72-6.22.47-16.48-4.65-21.24-4.57-4.24-11.38-4.71-19.28-.93Z"/>
  <path class="cls-1" d="M485.92,61.22c-.42-2.64-2.03-3.33-2.67-4.65,1.02-1.01,1.91-.36,2.8.03,4.86,2.17,9.71,4.36,14.58,6.51,2.78,1.23,5.29,2.86,7.31,5.12,4.6,5.14,2.97,11.48-3.44,14.1-2.04.83-4.26.46-6.8,1.3,2.29,7.1,1.25,15.04,7.16,20.89-5.26-.09-9.9-3.39-11.01-8-.89-3.71-1.56-7.48-2.12-11.26-.45-3.02-1.8-4.91-5.55-5.28-1.81,4.84-6.05,9.03-3.3,15.52-4.97-.96-9.21-3.01-13.99-5.02,1.45-1.47,3.14.03,4.51-.78,5.16-9.4,9.4-19.21,12.52-28.5ZM493.78,62.98c-2.66,4.5-4.91,8.96-6.03,14.09,3.76,2.48,7.38,4.18,11.52,1.36,2.83-1.93,4.39-5.87,3.48-9.16-1.21-4.36-4.94-5.22-8.97-6.29Z"/>
  <path class="cls-1" d="M536.04,102.55c-3.86,3.84-5.94,7.98-8.25,11.94-.46,1.71,1.16,2.7,1.43,4.65-4.59-2.04-8.49-4.47-12.47-7.1,1.41-1.38,2.6.19,3.8-.47,6.45-8.42,12.12-17.32,16.57-26.96.09-1.71-1.82-2.45-2.07-4.63,4.61,2.86,8.63,5.35,12.89,7.99-7.21,1.47-7.41,8.32-12.01,13.07,7.98-.16,14.16-2.59,20.48-3.96.11-1.13.19-1.9.26-2.63,1.32-.55,6.94,3.34,9.2,6.47-7.69-2.08-14.65-.07-21.58,1.87-.78,8.61,2.09,24.3,5.24,29.03-3.02-.17-4.44-1.05-9.56-5.93-1.81-3.62-.77-7.78-1.57-11.63-.76-3.65.22-7.66-2.38-11.69Z"/>
  <path class="cls-1" d="M52.22,304.68c-2.19-8.52,12-55.27,25.04-82.62,15.7-32.92,53.5-83.58,67.25-89.95.78,2.16-1.06,2.95-2.09,3.97-9.09,9.05-17.73,18.5-25.74,28.52-27.69,34.68-47.24,73.4-57.85,116.54-1.67,6.77-3.2,13.57-4.82,20.36-.29,1.21-.17,2.68-1.8,3.18Z"/>
  <path class="cls-1" d="M579.98,131.95c10.27,4.37,41.8,43.14,57.46,70.36,17.42,30.25,37.69,87.87,35.9,102.09-1.81.13-1.52-1.36-1.76-2.35-2.35-10.02-4.72-20.04-7.55-29.95-8.84-30.93-22.09-59.78-40.09-86.47-12.04-17.86-25.87-34.2-41.21-49.3-1.12-1.11-2.77-1.9-2.77-4.38Z"/>
  <path class="cls-1" d="M154.33,586.98c-.2,6.81-1.15,13.29.13,20.07-2.53-1.75-4.74-3.45-6.24-6.01-.88-4.77.63-9.52.47-14.32-.11-3.36-.02-3.36-2.78-6.16-3.41,2.1-5.7,5.27-7.52,7.83-1.04,1.99.03,3.21.14,5.3-3.58-3.4-6.55-6.22-9.64-9.16,1.16-1.19,2.32.11,3.38-.31,7.22-6.14,13.47-13.18,18.7-19.88.93-2.22-.69-3.15-.53-5.1,5.27,4.76,10.1,9,14.79,13.39,1.83,1.72,3.05,3.95,3.56,6.46,1.12,5.55-2.99,9.96-8.59,9.21-1.76-.24-3.48-.77-5.87-1.32ZM147.69,578.25c1.52,2.21,3.59,3.62,5.71,4.79,2.47,1.36,5.17,1.22,7.44-.62,2.03-1.65,3.07-3.89,2.65-6.57-.52-3.28-3.96-6.3-7.94-7.04-2.75,2.92-5.63,5.82-7.85,9.44Z"/>
  <path class="cls-1" d="M421.8,640.45c9.68,0,17.67,5.54,19.63,12.98,1.84,7-.73,14.31-6.63,18.52-6.21,4.44-13.09,5.82-20.37,3.46-7.43-2.4-11.36-8.09-12.2-15.57-.8-7.11,2.5-12.55,8.55-16.25,3.63-2.22,7.7-3.06,11.01-3.15ZM434.78,660.83c.03-2.67-.6-5.74-1.63-8.74-1.24-3.61-3.54-6.37-6.89-8.17-7.21-3.88-15.47,1.12-16.6,7.25-1.3,7.02.15,13.21,4.33,18.73,3.43,4.53,8.58,5.63,13.85,3.51,4.69-1.89,7.01-5.91,6.95-12.57Z"/>
  <path class="cls-1" d="M224.55,65.84c1.77,4.66,3.43,8.59,5.75,12.43,3.75-.97,7.13-2.13,9.61-4.07,1.38-1.63.47-3.35,1.6-5,2.42,3.3,3.83,6.67,4.92,10.7-2.29.05-3.07-2.37-4.97-2.27-3.25.47-6.38,1.41-9.76,3.47,1.59,5.01,3.58,9.74,6.94,14.07,4.96-1.89,9.72-3.31,13.23-6.36,1.58-2.41,1.25-4.89,2.22-7.65,1.77,3.11,2.5,5.85,2.88,8.62-2.4,1.64-25.59,11.39-28.49,12.02.05-1.61,2-2.19,1.99-4.63-3.51-8.95-7.6-18.53-12.65-27.66-1.44-.95-3.13.07-4.97-1.17,9.41-4.13,18.46-8.11,27.67-12.15,1.87,2.48,3.21,4.77,3.25,7.77-2.39-.06-3.03-2.41-4.91-2.88-5.21-.21-9.38,2.68-14.32,4.75Z"/>
  <path class="cls-1" d="M570.56,565.36c2.15-1.93,4.31-3.87,6.52-5.85,1.12,1.65-.4,2.63-.09,3.87,5.57,8.23,12.84,15.07,19.2,22.45-1.26,2.42-3.13,1.72-4.65,1.63-5.48-.34-10.94-.92-16.41-1.29-4.91-.33-9.83-.48-15.67-.76,4.99,6.63,9.14,12.59,15.29,16.74,1.47.66,2.48-1.31,4.26-.38-2.29,2.98-5.22,4.89-8.29,7.17.23-4.94.22-4.95-2.7-8.36-3.46-4.04-6.89-8.12-10.38-12.14-1.19-1.37-2.21-2.93-3.79-3.76-1.8-.5-3.34.25-5.35.85.22-2.08,1.76-2.6,2.73-3.48,1.1-1.01,2.33-1.86,3.47-2.76,10.71-.44,21.25,1.67,32.94,1.32-4.71-5.11-8.44-10.02-13.18-14.05-.98-.83-2.16-.74-3.33-.63-.19-.19-.38-.38-.57-.56Z"/>
  <path class="cls-1" d="M445.6,44.62c1.99,1.16,1.97,2.94,2.27,4.52,1.76,9.29,3.47,18.58,5.2,27.87.92,4.95,1.02,5.17,4.21,9.19-5.14-.44-9.54-2.32-14.13-3.25-.04-2.25,2.28-1.23,3.04-3.27.04-2.68-.28-6.06-1.45-9.48-4.33-1.89-8.85-2.73-13.34-3.19-4.7,4.67-7.48,7.72-3.75,12.32-3.83-.06-7.26-.61-11.71-2.41,5.82-1.3,8.15-5.16,10.76-8.7,4.82-6.56,9.56-13.17,14.44-19.68,1.14-1.52,1.98-3.54,4.48-3.92ZM443.72,66.92c.01-5.08-1.18-9.53-2.34-14.63-3.15,4.25-6.33,7.67-8.35,12.28,3.71.81,7.01,1.54,10.69,2.34Z"/>
  <path class="cls-1" d="M607.21,527.38c2.37.92,4.34,2.01,6.01,3.62-.99,1.23-2.01.66-2.91.57-5.69-.54-9.67,2.21-12.26,6.88-2.59,4.67-1.73,9.31,1.39,13.54,2.64,3.58,6.11,6.09,10.33,7.47,8.42,2.76,16.04-2.44,16.88-11.66-1.62-2.51-4.24-3.86-6.94-5.1-1.64-.52-2.77.96-5.06,1.12,2.39-3.48,4.63-6.34,7.43-9.38,1.81,4.81,6.79,6.27,9.37,10.37-1.03,2.52-2.05,5.13-3.16,7.7-1.84,4.24-4.82,7.52-8.7,10-6.28,4-13.75,4.17-19.25.24-6.34-4.53-8.48-10.85-7.22-18.36.65-3.85,2.46-7.19,5.25-9.99,2.59-2.6,5.38-4.92,8.87-7.04Z"/>
  <path class="cls-1" d="M674.27,369.17c-2.02-5.05-2.82-9.55-5.79-12.97-2.92-3.37-7.09-4.7-11.63-6.6,4.39-2.17,8.51-3.61,11.27-7.04,2.78-3.45,3.78-7.7,5.49-13.08,2.53,10.07,6.97,17.33,18.09,19.46-4.74,2.78-9.33,3.45-12.24,6.94-2.97,3.56-3.89,7.92-5.19,13.28Z"/>
  <path class="cls-1" d="M33,349.47q11.05-5.39,16.73-19.28c2.08,4.22,2.84,8.72,5.67,12.19,2.94,3.6,7.24,4.98,11.57,6.99-9.99,2.45-15.26,8.74-16.53,18.7-2.08-4.07-2.98-8.47-5.85-11.91-2.89-3.47-7.05-4.79-11.59-6.69Z"/>
  <path class="cls-1" d="M302.79,656.12c3.75.16,6.72,1.4,9.72,1.14,1.4-.34,1.86-1.61,2.78-2.21.94.92.91,1.2-.87,9.08-2.16-6.12-7.58-4.81-12.26-6.09-1.51,4.54-2.75,8.89-2.05,13.71,3.58,1.94,7.38,2.23,11.16,2.49,1.73.12,3.17-.8,4.44-1.97.83-.76,1.3-1.99,2.99-2.11.24,2.78-1.07,4.95-2.25,7.03-.59.11-.93.27-1.22.21-8.62-1.67-17.24-3.37-26.06-5.1.42-2.2,2.8-1.13,3.64-2.46,2.25-8.97,4.15-18.02,5.27-27.21-.25-1.55-2.02-1.84-2.71-3.85,8.9,2.25,17.56,3.66,26.27,5.3-.05,2.86-.4,5.03-1.43,7.33-1.96-1.14-1-3.39-2.31-4.55-3.61-2.71-7.79-3.34-12.63-3.28-1.69,3.73-1.86,7.8-2.47,12.54Z"/>
  <path class="cls-1" d="M627.04,494.33c2.08,1.09,4.1,1.77,5.52,3.72-6.81.89-10.7,3.59-11.44,7.75-.52,2.96.36,4.33,4.25,6.46,3.05-.16,5.53-1.74,7.87-3.66,2.45-2,4.95-3.91,7.9-5.15,3.65-1.53,7.18-1.43,10.35,1.07,3.23,2.54,3.85,6.06,3.13,9.89-1.01,5.37-4.02,9.39-10.69,14.43-1.43.19-2.47-.81-3.67-1.32-1.03-.43-2.29-.58-3.07-2.04,1.13-1.31,2.72-.5,3.99-.57,4-.2,6.96-2.11,9.1-5.32,3.22-4.83,1.79-8.58-3.96-10.6-3.36.55-6.03,2.53-8.63,4.6-2.35,1.88-4.84,3.51-7.71,4.49-6.54,2.24-11.71-1.65-11.49-8.57.11-3.45,1.15-6.52,3.36-9.17,1.59-1.91,3.24-3.76,5.2-6.04Z"/>
  <path class="cls-1" d="M126.83,532.65c-1.16-.11-2.05-1.16-3.53-1.15-6.9,5.94-15.93,9.53-20.13,17.82.54,4.97,2.47,8.33,5.96,10.73,3.16,2.17,6.53,2.6,9.83.44,5.84-3.83,11.41-8.02,16.28-12.23.88-1.99.21-3.42.1-4.94,2.58,2.2,5.14,4.23,6.46,7.35l.06-.06c-3.25-.77-5.79.66-8.24,2.55-3.81,2.95-7.68,5.82-11.51,8.74-4.6,3.51-9.17,3.04-13.86.13-5.32-3.3-8.17-8.15-9.12-14.18-.57-3.62,1.08-6.48,3.8-8.71,3.08-2.53,6.24-4.96,9.42-7.37,2.26-1.71,4.46-3.45,5.92-5.2.94-1.58.39-2.79.61-3.92l-.07.07c3.33,2.79,6.32,5.84,8.02,9.95h.01Z"/>
  <path class="cls-1" d="M222.56,645.82c.68-2.71,1.24-5.44.87-8.42-3.82-2.79-8.15-4.33-12.5-5.84-2.62,1.17-4.63,2.81-5.57,4.23-1.17,2.18.59,3.23-.05,4.88-2.79-1.55-5.36-2.97-8.92-4.94,4.27-.22,6.72-2.13,9.16-3.98,6.34-4.83,12.65-9.69,18.93-14.59,1.57-1.23,3.16-2.3,5.31-2.69,1.44,2.32.92,4.68.8,6.9-.42,7.78-.96,15.56-1.46,23.33-.19,2.86-.22,5.67,2.13,8.06-4.41-.78-7.77-3.47-12.05-5.07.82-1.35,2.25-.77,3.34-1.87ZM223.66,634.32c.43-4.52.87-8.41-.03-12.69-3.77,2.14-7.13,4.31-10.04,7.82,3.15,1.99,6.21,3.48,10.07,4.87Z"/>
  <path class="cls-1" d="M462.74,629.48c3.06,2.15,5.34,4.57,7.49,7.07,4.12,4.8,8.63,9.21,13.13,13.64,2.07,2.03,3.87,4.44,7.93,4.88-4.26,2.84-8.3,3.58-11.86,5.36-1.17-1.8.97-2.17.74-3.59-1.3-2.24-3.15-4.32-5.32-6.21-4.53-.25-8.45,1.5-12.47,3.38-.9,2.92-.81,5.85-.56,8.03.95,2.16,2.76,1.49,3.86,2.84-3.18,1.13-6.18,2.2-10.28,3.66,4.76-5.36,3.52-11.09,4.05-16.33.62-6.08,1.86-12.16,1.32-18.35-.13-1.51.69-2.84,1.97-4.39ZM472.24,647.77c-3.17-3.36-5.82-6.17-9.14-9.7-.22,4.97-.4,8.84-.59,13.05,3.21-1.11,5.99-2.07,9.72-3.35Z"/>
  <path class="cls-1" d="M388.48,671.48c1.21,2.3.66,3.85.07,5.86-7.82,4.37-16.26,5.49-24.55,1.41-6.25-3.07-9.63-8.9-9.04-16,.64-7.6,4.9-12.92,12.23-15.52,6.75-2.4,13.43-1.32,20.13.41,1,2.49.45,4.96.66,7.32-1.73.49-1.88-.76-2.41-1.48-3.45-4.72-8.16-6.53-13.49-5.17-5.41,1.38-8.62,5.14-9.27,11.03-.35,3.16-.39,6.35.39,9.44,1.22,4.82,3.87,8.7,9.01,9.62,5.41.97,10.7.48,14.5-4.37.51-.65.94-1.35,1.76-2.54Z"/>
  <path class="cls-1" d="M111.02,510.74c-2.13,1.41-3.89,2.57-5.99,3.96-.33-2.19,1.02-3.44,1.48-4.94,1.28-4.18,0-8.51-3.25-10.69-3.5-2.35-7.13-1-8.04,3.1-.44,1.96-.26,3.98.18,5.95.62,2.79.78,5.62.64,8.44-.35,7.02-6.82,10.89-13.12,7.93-4.6-2.17-7.89-5.47-9.18-10.54-.49-1.92-1.16-3.8-1.81-5.88,1.26-1.77,2.62-3.54,4.9-4.5.85,1.71-.38,2.73-.66,3.94-1.05,4.51-.51,8.67,2.99,11.97,3.73,3.51,8.19,2.24,9.66-2.64.48-1.6.58-3.22.36-4.93-.36-2.8-.66-5.63-.66-8.46-.02-7.87,6.48-11.66,13.46-7.95,3.41,1.81,5.6,4.67,6.84,8.26.75,2.18,1.39,4.4,2.19,6.99Z"/>
  <path class="cls-1" d="M177.72,623.69c-.91.04-1.55-.53-2.22-1-2.85-1.96-5.69-3.94-9.51-6.58,2.95-.02,4.88.01,6.15-1.73,5.1-6.97,10.26-13.89,14.5-21.36-.5-1.14-.89-2.02-1.28-2.9.31-.1.71-.37.88-.26,7.14,4.52,14.26,9.07,21.5,13.69-.78,2.22-1.73,3.89-3.19,5.86-1.34-1.54-.4-3.44-1.32-4.72-2.71-3.78-6.57-5.97-10.88-7.77-3.28,2.77-5.12,6.45-7.14,10.2,2.79,2.17,5.73,3.69,8.64,5.23,1.52.68,2.74-1.31,4.58-.34-1.64,2.71-3.63,4.97-5.66,7.3-1.57-1.57-.04-3.42-.74-3.89-2.71-2.87-5.1-4.58-8.01-5.96-3.14,2.97-5.34,6.41-6.7,9.32-.77,2.36.55,3.37.64,4.68l-.23.23Z"/>
  <path class="cls-1" d="M282.17,637.41c-.66,2.38-1.05,4.62-2.25,6.49-1.26-.01-1.1-.84-1.18-1.39-.82-5.54-4.56-8.4-9.5-9.69-5.35-1.39-9.79.34-13.06,4.96-2.7,3.8-4.07,8.05-3.99,12.61.16,9.93,9.92,15.94,19.24,12.08,1.31-.54,2.3-1.88,4.51-1.68-.96,2.87-2.39,4.72-5.4,4.99-7.48.66-14.36-1.16-19.91-6.19-5.3-4.8-6.4-11.16-4.24-17.85,2.19-6.78,6.85-10.82,14.18-11.42,8.26-.68,13.08.84,21.6,7.08Z"/>
  <path class="cls-1" d="M498.14,618.41c-3.47,1.26-6.08,2.59-7.71,4.86-.88,1.68-.53,3.25-.91,5.06-2.43-1.59-2.65-4.13-4.06-6.41,9.49-4.93,18.74-9.73,28-14.54,2.27,1.81,3.13,4.09,4.36,6.83-2.53-.13-3.64-2.41-5.66-2.38-3.06.23-5.62,1.63-8.28,3.58,4.28,8.4,9.02,16.37,13.88,24.27.97,1.18,2.64.07,3.81,1.23-3.73,1.96-7.34,3.86-10.94,5.75,1.02-3.05-.09-5.49-1.3-7.77-3.58-6.75-7.31-13.42-11.19-20.49Z"/>
  <path class="cls-1" d="M543.59,627.3c-.36-1.28,1.27-1.87,1.19-3.16-3.9-8.52-10.44-15.2-15.85-22.66-1.27-.92-2.65.24-4.59-.16,4.11-3.27,7.79-5.88,11.99-8.28.53,1.85-1.4,2.41-1.58,3.87,4.73,8.14,9.98,15.92,16.09,23.1,1.1.87,2.3-.18,3.35.22.39.99-5.75,5.06-10.6,7.07Z"/>
  <path class="cls-1" d="M51.46,389.95c2.88,5.81,2.75,12.15,4.07,18.19,1.35,6.17,2.62,12.36,3.91,18.54,1.29,6.19,3.22,12.2,4.88,18.29,1.67,6.11,4.05,11.96,6.14,17.91,2.05,5.84,5.1,11.33,6.59,17.39-2.36.78-2.51-.75-2.91-1.67-9.39-21.57-16.46-43.85-20.51-67.06-.89-5.07-1.75-10.15-2.58-15.24-.34-2.1-.55-4.22.42-6.37Z"/>
  <path class="cls-1" d="M648.13,480.66c3.04-8.25,5.77-15.44,8.35-22.69,2.62-7.36,5.15-14.76,7.01-22.36,1.86-7.58,3.63-15.2,5.12-22.86,1.47-7.56,2.53-15.19,3.83-23.19,2.13,1.2,1.6,2.63,1.52,3.78-.51,7.31-1.98,14.48-3.32,21.66-3.83,20.49-9.9,40.33-17.86,59.58-.81,1.96-1.11,4.42-4.64,6.08Z"/>
  <path class="cls-1" d="M571.13,565.92c-.26.34-.54.64-1.02.37-.27-.52.13-.71.45-.93.19.19.38.38.57.56Z"/>
  <path class="cls-1" d="M177.95,623.45c.11.18.23.35.41.64-.29-.18-.46-.29-.64-.4l.23-.23Z"/>
  <path class="cls-1" d="M118.87,522.64c-.11-.06-.23-.12-.34-.19.09.09.18.17.27.26l.07-.07Z"/>
  <path class="cls-1" d="M126.82,532.66c.22.12.44.25.67.38-.63.53-.55-.09-.66-.39h-.01Z"/>
  <path class="cls-1" d="M141.8,550.66c.15.11.31.21.25.17.05.06-.07-.09-.19-.23l-.06.06Z"/>
  <path class="cls-1" d="M312.44,346.43c3.05,7,7.31,13.18,11.09,19.64,13.52,23.14,27.11,46.24,42.32,68.33,7.09,10.3,14.68,20.24,24.4,28.29,10.64,8.8,22.55,13.99,36.73,12.86,2.19-.17,4.41-1.69,6.68-.34.11,2.28-1.65,2.36-2.98,2.85-5.66,2.1-11.57,3.15-17.53,3.68-23.74,2.11-43.79-6.15-60.94-22.16-12.31-11.49-21.25-25.55-29.96-39.76-12.27-20.01-23.2-40.79-35-61.06-.91-1.57-1.63-3.28-3.12-4.61-10.61-1.81-21.43-1.28-31.9-2.03-1.39,1.4-1.08,2.8-1.08,4.09-.02,28.14-.07,56.27.06,84.41.02,4.63.54,9.28,1.58,13.85,1.72,7.6,6.63,11.66,14.03,13.03,3.24.6,6.54.94,9.55,1.36.98,1.16.77,2.11.42,3.06-3.4.96-73.94,1.11-79.18.17-.79-.84-.73-1.75-.02-3.02,2.53-.4,5.29-.79,8.04-1.28,1.47-.26,2.94-.58,4.37-1.01,7.72-2.34,11.99-7.55,12.55-15.58.47-6.8,1.11-13.57,1.1-20.41-.09-54.94-.03-109.89-.1-164.83,0-5.98-.4-11.97-.9-17.94-.66-7.84-4.87-12.22-12.67-13.96-4.06-.9-8.22-.98-12.08-1.3-1.37-1.66-1.13-3.03-.49-4.38,1.47-.96,3.01-.61,4.47-.61,28.33-.01,56.66-.18,84.99.09,14.88.15,29.57,2.29,43.45,8.03,12.1,5.01,22.39,12.47,29.48,23.74,4.51,7.18,6.89,15.02,7.33,23.54,1.08,21.25-8.04,37.18-25.13,49.11-8.14,5.68-17.13,9.55-26.51,12.59-.78.25-1.56.52-2.33.81-.14.05-.22.23-.68.74ZM251.49,344.51c5.04.22,9.51.47,13.99.61,11.23.36,22.28-.75,32.89-4.61,11.98-4.36,21.68-11.71,27.84-23.02,6.26-11.49,7.63-23.93,6.06-36.78-1.03-8.41-3.8-16.16-8.76-23.06-7.96-11.07-19.01-17.38-32.08-20.46-12.63-2.98-25.44-2.61-38.25-1.92-.46.02-.9.34-1.68.65v108.57Z"/>
  <path class="cls-1" d="M459.62,229.11h58.65c.98,1.19.86,2.28.43,3.39-.27.22-.5.55-.77.59-2.31.32-4.61.68-6.93.85-2.52.18-4.95.73-7.31,1.55-6.51,2.27-9.62,6.54-9.85,13.48-.27,8.18.77,16.28,1.48,24.4.77,8.78,1.74,17.54,2.66,26.3,1.14,10.91,2.34,21.82,3.49,32.73.84,7.94,1.66,15.88,2.44,23.82,1.11,11.25,2.24,22.5,3.68,33.72,1.36,10.55,2.29,21.15,3.42,31.72,1.01,9.42,1.88,18.86,3.07,28.26,1.34,10.58,7.25,16.34,17.79,17.81,2.79.39,5.6.71,8.31,1.05,1.21.98,1.02,2.06.22,3.82-26.8.28-53.89.04-80.62.18-1.45-1.27-1.36-2.3-.52-3.6,2.95-.47,6.05-.94,9.14-1.45,2.15-.35,4.19-1.07,6.16-1.99,5.14-2.41,7.93-6.45,8.28-12.1.38-6.16.19-12.33-.44-18.45-1.48-14.56-3.09-29.1-4.68-43.64-2.24-20.5-4.53-40.98-6.75-61.48-1.82-16.86-3.48-33.73-5.4-50.58-.9-7.91-1.02-15.92-3.18-24.67-22.28,64.71-44.84,128.35-67.22,192.38-3.01-2.78-63.42-93.56-66.04-98.95,7.17-4.39,14.37-8.8,21.92-13.42,15.93,22.85,30.64,46.34,46.38,69.87,21.18-58.8,42.1-116.97,62.17-175.57Z"/>
</svg>
